<svg xmlns="http://www.w3.org/2000/svg" viewBox="0 0 220 280">
  <defs>
    <radialGradient id="guacBody" cx="35%" cy="30%" r="80%">
      <stop offset="0%"   stop-color="#10b981"/>
      <stop offset="100%" stop-color="#064e3b"/>
    </radialGradient>
    <radialGradient id="guacFlesh" cx="50%" cy="40%" r="70%">
      <stop offset="0%"   stop-color="#d9f99d"/>
      <stop offset="100%" stop-color="#84cc16"/>
    </radialGradient>
    <radialGradient id="guacPit" cx="38%" cy="32%" r="75%">
      <stop offset="0%"   stop-color="#fcd34d"/>
      <stop offset="50%"  stop-color="#d97706"/>
      <stop offset="100%" stop-color="#78350f"/>
    </radialGradient>
  </defs>
  <g transform="translate(120 14) rotate(-22)">
    <ellipse cx="0" cy="0" rx="9" ry="20" fill="#65a30d"/>
    <path d="M 0 -16 Q 4 0 0 16" stroke="#3f6212" stroke-width="1.4" fill="none"/>
  </g>
  <rect x="106" y="22" width="3" height="14" rx="1.5" fill="#3f6212"/>
  <path d="M 110 32 C 92 34, 82 48, 80 72 C 80 92, 70 108, 60 130 C 46 162, 44 200, 70 226 C 88 244, 132 244, 150 226 C 176 200, 174 162, 160 130 C 150 108, 140 92, 140 72 C 138 48, 128 34, 110 32 Z" fill="url(#guacBody)"/>
  <path d="M 86 60 C 78 80, 70 110, 64 140" stroke="white" stroke-width="6" stroke-linecap="round" fill="none" opacity="0.18"/>
  <path d="M 110 50 C 96 52, 89 62, 88 80 C 88 96, 80 110, 72 130 C 60 158, 60 192, 82 214 C 96 226, 124 226, 138 214 C 160 192, 160 158, 148 130 C 140 110, 132 96, 132 80 C 131 62, 124 52, 110 50 Z" fill="url(#guacFlesh)"/>
  <ellipse cx="110" cy="172" rx="38" ry="40" fill="url(#guacPit)"/>
  <ellipse cx="96" cy="158" rx="11" ry="6" fill="#fef3c7" opacity="0.55"/>
  <circle cx="80"  cy="190" r="6" fill="#fb7185" opacity="0.55"/>
  <circle cx="140" cy="190" r="6" fill="#fb7185" opacity="0.55"/>
  <circle cx="94" cy="168" r="8" fill="white" stroke="#1f2937" stroke-width="1"/>
  <circle cx="126" cy="168" r="8" fill="white" stroke="#1f2937" stroke-width="1"/>
  <circle cx="95" cy="169" r="4" fill="#1f2937"/>
  <circle cx="127" cy="169" r="4" fill="#1f2937"/>
  <path d="M 100 194 Q 110 204, 120 194" stroke="#1f2937" stroke-width="3.5" stroke-linecap="round" fill="none"/>
  <g transform="rotate(-6 110 170)">
    <path d="M 100 165 Q 110 170, 120 165" stroke="#facc15" stroke-width="2.5" fill="none" stroke-linecap="round"/>
    <ellipse cx="92" cy="168" rx="15" ry="11" fill="#a3e635" fill-opacity="0.25" stroke="#facc15" stroke-width="2.2"/>
    <ellipse cx="128" cy="168" rx="15" ry="11" fill="#a3e635" fill-opacity="0.25" stroke="#facc15" stroke-width="2.2"/>
    <path d="M 84 162 Q 88 158, 94 158" stroke="white" stroke-width="1.5" fill="none" stroke-linecap="round" opacity="0.85"/>
    <path d="M 120 162 Q 124 158, 130 158" stroke="white" stroke-width="1.5" fill="none" stroke-linecap="round" opacity="0.85"/>
    <line x1="143" y1="168" x2="150" y2="170" stroke="#facc15" stroke-width="2" stroke-linecap="round"/>
    <line x1="77" y1="168" x2="70" y2="170" stroke="#facc15" stroke-width="2" stroke-linecap="round"/>
    <path d="M 168 168 C 188 158, 206 142, 214 122 C 217 112, 209 106, 204 112 C 198 122, 192 130, 175 156 Z" fill="#047857"/>
    <g transform="translate(214 110) rotate(-12)">
      <rect x="-22" y="-12" width="44" height="22" rx="2" fill="#166534"/>
      <rect x="-24" y="-14" width="44" height="22" rx="2" fill="#16a34a" stroke="#14532d" stroke-width="1"/>
      <rect x="-26" y="-16" width="44" height="22" rx="2" fill="#22c55e" stroke="#14532d" stroke-width="1"/>
      <text x="-4" y="-1" font-size="14" font-weight="900" font-family="sans-serif" fill="#14532d" text-anchor="middle">$</text>
    </g>
  </g>
</svg>
